# xmcd
# 
# Track frame offsets:
#     150
#     31156
#     60960
#     91829
#     111214
#     127667
#     143558
#     165187
#     193948
#     213977
#     243830
#     252520
#     277325
#     289361
# 
# Disc length: 4109
# 
# Revision: 0
# Processed by: cddbd v1.5.2PL0 Copyright (c) Steve Scherf et al.
# Submitted via: fre:ac v1.0.31
# 
DISCID=c2100b0e
DTITLE=Namco Sound Team - Ace Combat: Assault Horizon OST
DYEAR=2012
DGENRE=Soundtrack
TTITLE0="Rebirth" From Sand Storm
TTITLE1=Inferno
TTITLE2=Town Of Fiction
TTITLE3=Spooky
TTITLE4=Blue On Blue
TTITLE5=Mrs. Krista Yoslav
TTITLE6=Rush
TTITLE7=Beyond The Canal
TTITLE8=Pipeline
TTITLE9=Launch
TTITLE10=Dogfight
TTITLE11=Release
TTITLE12=Horizon
TTITLE13=Gotta Stay Fly
EXTD=
EXTT0=
EXTT1=
EXTT2=
EXTT3=
EXTT4=
EXTT5=
EXTT6=
EXTT7=
EXTT8=
EXTT9=
EXTT10=
EXTT11=
EXTT12=
EXTT13=
PLAYORDER=
